<svg width="61" height="58" viewBox="0 0 61 58" fill="none" xmlns="http://www.w3.org/2000/svg">
<path fill-rule="evenodd" clip-rule="evenodd" d="M38.1079 18.9021C37.8794 18.8764 37.6485 18.8764 37.42 18.9021L24.9834 21.9822C23.9933 22.217 23.2203 22.9567 22.9748 23.904L19.8381 35.9085C19.6313 36.7076 19.827 37.5533 20.3671 38.1941C20.9072 38.8349 21.7296 39.1971 22.5896 39.1729C22.8181 39.1986 23.049 39.1986 23.2775 39.1729L35.8517 36.0928C36.8418 35.858 37.6148 35.1183 37.8602 34.171L40.9969 22.1665C41.2038 21.3674 41.0081 20.5217 40.4679 19.8809C39.9278 19.2401 39.1055 18.8779 38.2455 18.9021H38.1079ZM35.0813 24.4042L33.1552 31.828L25.3961 33.6708L27.3221 26.247L35.0813 24.4042Z" fill="black"/>
<path fill-rule="evenodd" clip-rule="evenodd" d="M36.1819 2.39584H24.5156C12.3589 2.39584 2.50391 11.825 2.50391 23.4564V34.6186C2.50391 46.25 12.3589 55.6792 24.5156 55.6792H36.1819C48.3386 55.6792 58.1936 46.25 58.1936 34.6186V23.4564C58.1936 11.825 48.3386 2.39584 36.1819 2.39584ZM24.5156 51.7303C14.6446 51.7158 6.64626 44.0631 6.63111 34.6186V23.4564C6.64626 14.0119 14.6446 6.3592 24.5156 6.34471H36.1819C46.0529 6.3592 54.0512 14.0119 54.0664 23.4564V34.6186C54.0512 44.0631 46.0529 51.7158 36.1819 51.7303H24.5156Z" fill="black"/>
</svg>
